<?xml version="1.0" encoding="UTF-8" standalone="no"?>
<svg xmlns="http://www.w3.org/2000/svg" xmlns:xlink="http://www.w3.org/1999/xlink" fill="#000000"
    height="197.6" preserveAspectRatio="xMidYMid meet" version="1" viewBox="56.8 151.2 386.4 197.6"
    width="386.4" zoomAndPan="magnify">
    <g id="change1_1">
        <path
            d="M63.3,343.8h373.4c0.8,0,1.5-0.7,1.5-1.5V157.7c0-0.8-0.7-1.5-1.5-1.5H63.3c-0.8,0-1.5,0.7-1.5,1.5v184.7 C61.8,343.2,62.5,343.8,63.3,343.8z M64.8,159.2h370.4v181.7H64.8V159.2z M63.3,348.8h373.4c3.6,0,6.5-2.9,6.5-6.5V157.7 c0-3.6-2.9-6.5-6.5-6.5H63.3c-3.6,0-6.5,2.9-6.5,6.5v184.7C56.8,345.9,59.7,348.8,63.3,348.8z M59.8,157.7c0-1.9,1.6-3.5,3.5-3.5 h373.4c1.9,0,3.5,1.6,3.5,3.5v184.7c0,1.9-1.6,3.5-3.5,3.5H63.3c-1.9,0-3.5-1.6-3.5-3.5V157.7z"
            fill="#75471a" />
    </g>
</svg>