<?xml version="1.0" encoding="UTF-8" standalone="no"?><svg xmlns="http://www.w3.org/2000/svg" xmlns:xlink="http://www.w3.org/1999/xlink" fill="#000000" height="170" preserveAspectRatio="xMidYMid meet" version="1" viewBox="36.4 15.0 127.2 170.0" width="127.2" zoomAndPan="magnify"><g fill="#d23544" id="change1_1"><path d="M 157.921875 90.503906 C 155.226562 85.8125 152.152344 80.492188 150.511719 76.105469 C 149.328125 72.941406 148.671875 67.511719 148.039062 62.261719 C 146.726562 51.449219 145.492188 41.238281 139.316406 39.1875 C 132.75 36.996094 125 32.644531 110.707031 23.113281 C 99.476562 15.632812 77.492188 17.671875 66.683594 19.257812 C 65.300781 19.457031 63.914062 19.652344 62.535156 19.863281 C 62.121094 19.929688 61.691406 20.082031 61.4375 20.417969 C 61.273438 20.636719 61.191406 20.90625 61.136719 21.175781 C 60.863281 22.496094 61 23.839844 61 25.171875 C 61 26.183594 61 27.191406 61 28.203125 C 61 31.265625 61 34.332031 61 37.398438 C 61 41.363281 61 45.332031 61 49.296875 C 61 53.578125 61 57.855469 61 62.132812 C 61 66.132812 61 70.132812 61 74.132812 C 61 77.261719 61 80.390625 61 83.519531 C 61 85.023438 60.996094 86.523438 61 88.023438 C 61 89.335938 60.851562 90.742188 61.578125 91.902344 C 62.15625 92.824219 63.167969 93.554688 64.289062 93.46875 C 65.421875 93.386719 66.371094 92.613281 67.351562 92.121094 C 83.964844 83.75 98.667969 88.089844 98.820312 88.148438 L 99.195312 88.230469 C 129.523438 93.539062 145.820312 100.773438 153.652344 104.242188 C 156.855469 105.664062 158.695312 106.484375 160.136719 106.484375 C 160.828125 106.484375 161.4375 106.296875 162.046875 105.886719 C 163.03125 105.253906 163.597656 104.171875 163.597656 102.929688 C 163.597656 100.46875 161.648438 96.976562 157.921875 90.503906"/><path d="M 53.976562 15 C 52.039062 15 50.457031 16.582031 50.457031 18.515625 L 50.457031 169.757812 C 50.457031 171.691406 52.039062 173.277344 53.976562 173.277344 C 55.910156 173.277344 57.492188 171.691406 57.492188 169.757812 L 57.492188 18.515625 C 57.492188 16.582031 55.910156 15 53.976562 15"/><path d="M 61.28125 158.808594 L 61.28125 166.917969 C 63.089844 168.085938 64.238281 169.640625 64.238281 171.300781 C 64.238281 174.699219 59.4375 177.695312 53.976562 177.695312 C 48.515625 177.695312 43.710938 174.699219 43.710938 171.300781 C 43.710938 169.640625 44.859375 168.085938 46.667969 166.917969 L 46.667969 158.808594 C 40.570312 160.925781 36.40625 165.65625 36.40625 171.300781 C 36.40625 178.992188 44.128906 185 53.976562 185 C 63.820312 185 71.546875 178.992188 71.546875 171.300781 C 71.546875 165.65625 67.382812 160.925781 61.28125 158.808594"/></g></svg>