<?xml version="1.0" encoding="UTF-8" standalone="no"?><svg xmlns="http://www.w3.org/2000/svg" xmlns:xlink="http://www.w3.org/1999/xlink" fill="#000000" height="448.8" preserveAspectRatio="xMidYMid meet" version="1" viewBox="0.0 0.0 448.8 448.8" width="448.8" zoomAndPan="magnify"><g><g id="change1_1"><path d="M 444.375 224.375 C 444.375 102.871094 345.878906 4.375 224.375 4.375 C 102.871094 4.375 4.375 102.871094 4.375 224.375 C 4.375 345.878906 102.871094 444.375 224.375 444.375 C 345.878906 444.375 444.375 345.878906 444.375 224.375" fill="#eef2f5"/></g><g id="change2_1"><path d="M 224.375 8.75 C 105.480469 8.75 8.75 105.480469 8.75 224.375 C 8.75 343.269531 105.480469 440 224.375 440 C 343.269531 440 440 343.269531 440 224.375 C 440 105.480469 343.269531 8.75 224.375 8.75 Z M 224.375 448.75 C 164.441406 448.75 108.097656 425.410156 65.71875 383.03125 C 23.339844 340.652344 0 284.308594 0 224.375 C 0 164.441406 23.339844 108.097656 65.71875 65.71875 C 108.097656 23.339844 164.441406 0 224.375 0 C 284.308594 0 340.652344 23.339844 383.03125 65.71875 C 425.410156 108.097656 448.75 164.441406 448.75 224.375 C 448.75 284.308594 425.410156 340.652344 383.03125 383.03125 C 340.652344 425.410156 284.308594 448.75 224.375 448.75" fill="#d23544"/></g><g id="change3_1"><path d="M 425.875 224.375 C 425.875 113.089844 335.660156 22.875 224.375 22.875 C 113.089844 22.875 22.875 113.089844 22.875 224.375 C 22.875 335.660156 113.089844 425.875 224.375 425.875 C 335.660156 425.875 425.875 335.660156 425.875 224.375" fill="#f8fafb"/></g><g id="change4_1"><path d="M 411.375 224.375 C 411.375 121.097656 327.652344 37.375 224.375 37.375 C 121.097656 37.375 37.375 121.097656 37.375 224.375 C 37.375 327.652344 121.097656 411.375 224.375 411.375 C 327.652344 411.375 411.375 327.652344 411.375 224.375" fill="#fefefe"/></g><g id="change5_1"><path d="M 354.679688 210.574219 C 352.496094 197.554688 349.324219 185.703125 345.246094 175.355469 C 341.035156 164.660156 336.929688 158.964844 331.941406 156.882812 C 329.195312 155.734375 326.234375 155.773438 323.386719 156.996094 C 316.472656 159.960938 314.035156 170.335938 315.714844 189.640625 C 316.433594 197.910156 317.742188 205.828125 318.59375 210.460938 C 312.464844 212.773438 304.992188 218.074219 296.0625 226.417969 C 285.832031 235.980469 278.253906 241.769531 271.566406 246.875 C 264.359375 252.378906 258.136719 257.132812 251.550781 264.566406 C 247.953125 268.625 245.144531 273.128906 243.195312 277.957031 C 242.265625 280.261719 243.378906 282.882812 245.683594 283.8125 C 246.234375 284.035156 246.804688 284.140625 247.367188 284.140625 C 249.148438 284.140625 250.832031 283.078125 251.539062 281.324219 C 253.125 277.398438 255.332031 273.867188 258.289062 270.535156 C 264.296875 263.757812 269.914062 259.464844 277.027344 254.027344 C 283.542969 249.050781 291.648438 242.859375 302.210938 232.992188 C 313.78125 222.179688 320.761719 218.703125 324.117188 218.164062 C 324.320312 218.148438 324.527344 218.140625 324.734375 218.097656 C 324.734375 218.097656 324.738281 218.097656 324.738281 218.097656 C 325.359375 218.0625 325.816406 218.144531 326.117188 218.308594 C 327.03125 218.816406 327.492188 219.421875 327.707031 220.394531 C 328.496094 223.96875 325.617188 230.335938 322.367188 234.773438 C 312.238281 248.613281 297.0625 264.757812 287.996094 274.40625 L 286.894531 275.578125 C 285.191406 277.390625 285.28125 280.234375 287.09375 281.9375 C 288.902344 283.640625 291.753906 283.550781 293.453125 281.738281 L 294.554688 280.570312 C 303.761719 270.773438 319.175781 254.375 329.632812 240.089844 C 331.125 238.050781 338.472656 227.417969 336.496094 218.453125 C 335.726562 214.960938 333.644531 212.1875 330.472656 210.433594 C 329.558594 209.929688 328.582031 209.566406 327.542969 209.351562 C 326.734375 204.992188 325.390625 197.03125 324.679688 188.863281 C 322.835938 167.640625 326.890625 165.285156 326.933594 165.269531 C 327.644531 164.964844 328.050781 165.011719 328.480469 165.1875 C 329.589844 165.652344 332.636719 167.894531 336.875 178.652344 C 340.722656 188.417969 343.726562 199.65625 345.800781 212.0625 C 349.933594 236.742188 347.871094 249.164062 337.628906 261.277344 C 334.992188 264.394531 332.003906 267.664062 328.835938 271.128906 C 315.203125 286.039062 298.242188 304.597656 294.355469 328.238281 C 293.949219 330.6875 295.609375 333.003906 298.0625 333.40625 C 298.3125 333.449219 298.558594 333.46875 298.800781 333.46875 C 300.964844 333.46875 302.871094 331.902344 303.234375 329.699219 C 306.6875 308.695312 321.984375 291.964844 335.480469 277.203125 C 338.707031 273.671875 341.753906 270.335938 344.5 267.089844 C 358.210938 250.875 358.613281 234.089844 354.679688 210.574219" fill="#010101"/></g><g id="change5_2"><path d="M 197.199219 264.566406 C 190.613281 257.132812 184.390625 252.378906 177.183594 246.875 C 170.496094 241.769531 162.917969 235.980469 152.6875 226.417969 C 143.757812 218.074219 136.285156 212.777344 130.15625 210.464844 C 131.007812 205.828125 132.316406 197.914062 133.035156 189.640625 C 134.714844 170.335938 132.277344 159.960938 125.363281 156.996094 C 122.515625 155.777344 119.558594 155.734375 116.808594 156.882812 C 111.820312 158.964844 107.714844 164.660156 103.5 175.355469 C 99.425781 185.703125 96.253906 197.554688 94.074219 210.574219 C 90.136719 234.089844 90.539062 250.875 104.25 267.089844 C 106.996094 270.335938 110.042969 273.671875 113.269531 277.199219 C 126.765625 291.964844 142.0625 308.695312 145.515625 329.699219 C 145.878906 331.902344 147.785156 333.46875 149.949219 333.46875 C 150.191406 333.46875 150.4375 333.449219 150.6875 333.40625 C 153.140625 333.003906 154.800781 330.6875 154.394531 328.238281 C 150.507812 304.597656 133.542969 286.039062 119.914062 271.128906 C 116.746094 267.664062 113.757812 264.394531 111.121094 261.277344 C 100.878906 249.164062 98.816406 236.742188 102.949219 212.0625 C 105.023438 199.65625 108.027344 188.417969 111.875 178.652344 C 116.113281 167.894531 119.160156 165.652344 120.269531 165.1875 C 120.695312 165.011719 121.105469 164.960938 121.816406 165.269531 C 121.859375 165.285156 125.90625 167.636719 124.074219 188.789062 C 123.367188 196.972656 122.019531 204.976562 121.207031 209.355469 C 120.167969 209.566406 119.191406 209.929688 118.277344 210.433594 C 115.105469 212.1875 113.023438 214.964844 112.253906 218.457031 C 110.277344 227.417969 117.625 238.050781 119.117188 240.089844 C 129.574219 254.375 144.984375 270.769531 154.191406 280.566406 L 155.296875 281.738281 C 157 283.550781 159.847656 283.640625 161.65625 281.9375 C 163.46875 280.234375 163.558594 277.390625 161.855469 275.578125 L 160.75 274.402344 C 151.683594 264.757812 136.511719 248.613281 126.382812 234.773438 C 123.132812 230.335938 120.253906 223.96875 121.042969 220.394531 C 121.257812 219.421875 121.71875 218.816406 122.632812 218.308594 C 122.933594 218.144531 123.390625 218.0625 124.011719 218.097656 C 124.011719 218.097656 124.015625 218.097656 124.015625 218.097656 C 124.226562 218.144531 124.433594 218.152344 124.644531 218.164062 C 128.003906 218.710938 134.980469 222.1875 146.539062 232.992188 C 157.101562 242.859375 165.207031 249.050781 171.722656 254.027344 C 178.835938 259.464844 184.453125 263.757812 190.460938 270.535156 C 193.449219 273.902344 195.671875 277.476562 197.261719 281.449219 C 197.964844 283.210938 199.652344 284.28125 201.4375 284.28125 C 201.996094 284.28125 202.5625 284.179688 203.105469 283.960938 C 205.414062 283.035156 206.539062 280.417969 205.617188 278.109375 C 203.664062 273.226562 200.832031 268.667969 197.199219 264.566406" fill="#010101"/></g><g id="change2_2"><path d="M 224.378906 81.273438 C 236.34375 81.273438 246.078125 91.011719 246.078125 102.976562 C 246.078125 114.941406 236.34375 124.679688 224.378906 124.679688 C 212.410156 124.679688 202.671875 114.941406 202.671875 102.976562 C 202.671875 91.011719 212.410156 81.273438 224.378906 81.273438 Z M 224.378906 133.679688 C 241.308594 133.679688 255.078125 119.90625 255.078125 102.976562 C 255.078125 86.046875 241.308594 72.273438 224.378906 72.273438 C 207.445312 72.273438 193.671875 86.046875 193.671875 102.976562 C 193.671875 119.90625 207.445312 133.679688 224.378906 133.679688" fill="#d23544"/></g><g id="change2_3"><path d="M 228.875 248.789062 L 228.875 212.355469 C 228.875 209.871094 226.859375 207.855469 224.375 207.855469 C 221.890625 207.855469 219.875 209.871094 219.875 212.355469 L 219.875 248.789062 C 219.875 251.273438 221.890625 253.289062 224.375 253.289062 C 226.859375 253.289062 228.875 251.273438 228.875 248.789062" fill="#d23544"/></g><g id="change2_4"><path d="M 291.792969 120.050781 C 289.394531 116.84375 285.894531 114.863281 281.9375 114.476562 C 278.175781 114.109375 274.359375 115.21875 271.1875 117.597656 L 251.984375 131.929688 C 244.0625 137.828125 234.253906 141.078125 224.375 141.078125 C 214.496094 141.078125 204.6875 137.828125 196.769531 131.933594 L 177.570312 117.601562 C 174.390625 115.21875 170.570312 114.109375 166.8125 114.476562 C 162.855469 114.863281 159.355469 116.84375 156.957031 120.050781 C 154.5625 123.246094 153.632812 127.167969 154.339844 131.085938 C 155.019531 134.847656 157.148438 138.234375 160.324219 140.609375 L 194.117188 166.074219 C 196.328125 167.734375 197.644531 170.375 197.644531 173.136719 L 197.644531 203.027344 C 197.644531 203.058594 197.644531 203.089844 197.644531 203.121094 L 197.644531 248.746094 C 197.644531 251.230469 199.660156 253.246094 202.144531 253.246094 C 204.632812 253.246094 206.644531 251.230469 206.644531 248.746094 L 206.644531 203.042969 C 206.644531 203.011719 206.644531 202.980469 206.644531 202.949219 L 206.644531 173.136719 C 206.644531 167.5625 203.984375 162.230469 199.53125 158.882812 L 165.730469 133.414062 C 164.371094 132.398438 163.472656 131 163.195312 129.484375 C 163.015625 128.472656 163.03125 126.949219 164.160156 125.441406 C 165.269531 123.960938 166.691406 123.53125 167.6875 123.433594 C 169.203125 123.289062 170.796875 123.773438 172.183594 124.808594 L 191.390625 139.148438 C 200.855469 146.195312 212.570312 150.078125 224.375 150.078125 C 236.179688 150.078125 247.894531 146.195312 257.363281 139.144531 L 276.574219 124.804688 C 277.953125 123.773438 279.539062 123.285156 281.0625 123.433594 C 282.058594 123.53125 283.480469 123.960938 284.589844 125.441406 C 285.71875 126.949219 285.734375 128.472656 285.554688 129.484375 C 285.277344 131 284.378906 132.398438 283.011719 133.421875 L 249.222656 158.878906 C 244.765625 162.230469 242.105469 167.5625 242.105469 173.136719 L 242.105469 202.949219 C 242.105469 202.980469 242.105469 203.011719 242.105469 203.042969 L 242.105469 248.746094 C 242.105469 251.230469 244.117188 253.246094 246.605469 253.246094 C 249.089844 253.246094 251.105469 251.230469 251.105469 248.746094 L 251.105469 203.121094 C 251.105469 203.089844 251.105469 203.058594 251.105469 203.027344 L 251.105469 173.136719 C 251.105469 170.375 252.421875 167.734375 254.636719 166.070312 L 288.414062 140.617188 C 291.601562 138.234375 293.730469 134.847656 294.410156 131.085938 C 295.117188 127.167969 294.1875 123.246094 291.792969 120.050781" fill="#d23544"/></g><g id="change2_5"><path d="M 229.382812 354.855469 C 227.742188 356.1875 226.070312 357.546875 224.375 358.9375 C 222.675781 357.542969 221.003906 356.183594 219.367188 354.851562 C 202.273438 340.945312 189.921875 330.898438 190.128906 317.480469 C 190.28125 307.652344 196.710938 300.785156 205.761719 300.785156 C 211.527344 300.785156 217.558594 304.449219 220.425781 309.699219 C 221.214844 311.144531 222.730469 312.042969 224.375 312.042969 C 226.019531 312.042969 227.535156 311.144531 228.324219 309.699219 C 231.191406 304.449219 237.222656 300.785156 242.988281 300.785156 C 252.039062 300.785156 258.46875 307.652344 258.621094 317.480469 C 258.828125 330.898438 246.476562 340.949219 229.382812 354.855469 Z M 242.988281 291.785156 C 236.113281 291.785156 229.234375 294.9375 224.375 300.011719 C 219.515625 294.9375 212.636719 291.785156 205.761719 291.785156 C 191.71875 291.785156 181.359375 302.535156 181.132812 317.34375 C 180.855469 335.125 195.34375 346.910156 213.6875 361.835938 C 216.21875 363.894531 218.832031 366.019531 221.496094 368.234375 C 222.332031 368.929688 223.355469 369.273438 224.375 369.273438 C 225.394531 369.273438 226.417969 368.929688 227.253906 368.234375 C 229.917969 366.019531 232.527344 363.894531 235.0625 361.835938 C 253.40625 346.914062 267.894531 335.128906 267.621094 317.34375 C 267.390625 302.535156 257.03125 291.785156 242.988281 291.785156" fill="#d23544"/></g></g></svg>