<?xml version="1.0" encoding="UTF-8"?><svg xmlns="http://www.w3.org/2000/svg" xmlns:xlink="http://www.w3.org/1999/xlink" clip-rule="evenodd" fill-rule="evenodd" height="308.4" preserveAspectRatio="xMidYMid meet" stroke-linejoin="round" stroke-miterlimit="2" version="1.0" viewBox="0.0 0.0 228.0 308.4" width="228.0" zoomAndPan="magnify"><g><g><g id="change1_1"><path d="M250,400C250,400 140,299.92 140,210C140,149.289 189.289,100 250,100C310.711,100 360,149.289 360,210C360,299.92 250,400 250,400ZM250,135C291.394,135 325,168.606 325,210C325,251.394 291.394,285 250,285C208.606,285 175,251.394 175,210C175,168.606 208.606,135 250,135Z" fill="#e85555" transform="translate(-136 -96)"/></g><g id="change2_1" transform="translate(-141 -105)"><circle cx="255" cy="219" fill="#bfbfbf" r="75"/></g><g id="change3_1"><path d="M1531.75,1942.55C1546.89,1960.88 1556,1984.38 1556,2010C1556,2045.24 1538.63,2082.02 1517.94,2113.53C1491.45,2153.87 1459.37,2185.59 1450,2194.52C1439.45,2184.48 1400.15,2145.56 1372.43,2097.99C1371.31,2096.08 1368.86,2095.43 1366.96,2096.54C1365.05,2097.66 1364.4,2100.11 1365.51,2102.01C1398.41,2158.47 1447.31,2202.96 1447.31,2202.96C1448.83,2204.35 1451.17,2204.35 1452.69,2202.96C1452.69,2202.96 1492.66,2166.61 1524.62,2117.92C1546.17,2085.1 1564,2046.7 1564,2010C1564,1982.45 1554.21,1957.17 1537.91,1937.45C1536.51,1935.75 1533.98,1935.51 1532.28,1936.92C1530.58,1938.32 1530.34,1940.85 1531.75,1942.55ZM1450,1931C1406.4,1931 1371,1966.4 1371,2010C1371,2053.6 1406.4,2089 1450,2089C1493.6,2089 1529,2053.6 1529,2010C1529,1966.4 1493.6,1931 1450,1931ZM1363.58,2081.65C1352.01,2058.47 1344,2033.88 1344,2010C1344,1951.5 1391.5,1904 1450,1904C1475.62,1904 1499.12,1913.11 1517.45,1928.25C1519.15,1929.66 1521.68,1929.42 1523.08,1927.72C1524.49,1926.02 1524.25,1923.49 1522.55,1922.09C1502.83,1905.79 1477.55,1896 1450,1896C1387.08,1896 1336,1947.08 1336,2010C1336,2035.06 1344.28,2060.9 1356.42,2085.22C1357.41,2087.2 1359.81,2088 1361.79,2087.01C1363.76,2086.03 1364.57,2083.62 1363.58,2081.65ZM1450,1939C1489.19,1939 1521,1970.81 1521,2010C1521,2049.19 1489.19,2081 1450,2081C1410.81,2081 1379,2049.19 1379,2010C1379,1970.81 1410.81,1939 1450,1939ZM1446,1983.42L1446,1991L1440,1991C1437.79,1991 1436,1992.79 1436,1995C1436,1997.21 1437.79,1999 1440,1999L1446,1999L1446,2055.69L1445.84,2055.68C1432.48,2054.68 1421.8,2044.74 1419.47,2032L1419.88,2032.5C1421.26,2034.22 1423.78,2034.5 1425.5,2033.12C1427.22,2031.74 1427.5,2029.23 1426.12,2027.5L1418.12,2017.5C1417.36,2016.55 1416.21,2016 1415,2016C1413.79,2016 1412.64,2016.55 1411.88,2017.5L1403.88,2027.5C1402.5,2029.23 1402.78,2031.74 1404.5,2033.12C1406.23,2034.5 1408.74,2034.22 1410.12,2032.5L1411.25,2031.09C1413.29,2048.47 1427.39,2062.32 1445.24,2063.65L1449.66,2063.99C1449.76,2063.99 1449.86,2064 1449.96,2064L1449.97,2064L1450,2064L1450.04,2064C1450.14,2064 1450.24,2063.99 1450.34,2063.99L1454.76,2063.65C1472.61,2062.32 1486.71,2048.47 1488.75,2031.09L1489.88,2032.5C1491.26,2034.22 1493.78,2034.5 1495.5,2033.12C1497.22,2031.74 1497.5,2029.23 1496.12,2027.5L1488.12,2017.5C1487.36,2016.55 1486.21,2016 1485,2016C1483.79,2016 1482.64,2016.55 1481.88,2017.5L1473.88,2027.5C1472.5,2029.23 1472.78,2031.74 1474.5,2033.12C1476.23,2034.5 1478.74,2034.22 1480.12,2032.5L1480.53,2031.99C1478.2,2044.74 1467.52,2054.68 1454.16,2055.68L1454,2055.69L1454,1999L1460,1999C1462.21,1999 1464,1997.21 1464,1995C1464,1992.79 1462.21,1991 1460,1991L1454,1991L1454,1983.42C1459.78,1981.7 1464,1976.34 1464,1970C1464,1962.27 1457.73,1956 1450,1956C1442.27,1956 1436,1962.27 1436,1970C1436,1976.34 1440.22,1981.7 1446,1983.42ZM1450,1964C1453.31,1964 1456,1966.69 1456,1970C1456,1973.31 1453.31,1976 1450,1976C1446.69,1976 1444,1973.31 1444,1970C1444,1966.69 1446.69,1964 1450,1964Z" fill="#262626" transform="translate(-1336 -1896)"/></g></g></g></svg>