<?xml version="1.0" encoding="UTF-8"?><svg xmlns="http://www.w3.org/2000/svg" xmlns:xlink="http://www.w3.org/1999/xlink" clip-rule="evenodd" fill-rule="evenodd" height="3000.0" image-rendering="optimizeQuality" preserveAspectRatio="xMidYMid meet" shape-rendering="geometricPrecision" text-rendering="geometricPrecision" version="1.0" viewBox="0.0 0.0 3000.0 3000.0" width="3000.0" zoomAndPan="magnify"><g><g id="change1_1"><circle cx="1500" cy="1500" fill="#7eaf31" r="1500"/></g><g id="change2_1"><circle cx="1500" cy="1500" fill="#75471a" r="1415"/></g><g id="change3_1"><circle cx="1500" cy="1500" fill="#fff" r="1373"/></g><g id="change4_1"><path d="M1920 2109c0,24 20,43 44,43 24,0 43,-19 43,-43l0 -170c0,-23 -19,-43 -43,-43 -24,0 -44,20 -44,43l0 170z" fill="#a97d50" fill-rule="nonzero"/></g><g id="change4_2"><path d="M971 2109c0,24 20,43 44,43 24,0 43,-19 43,-43l0 -201c0,-24 -19,-43 -43,-43 -24,0 -44,19 -44,43l0 201z" fill="#a97d50" fill-rule="nonzero"/></g><g id="change1_2"><path d="M1018 1146c4,0 8,0 11,0 -12,41 -16,86 -8,130 6,35 19,69 37,99 -18,30 -31,63 -37,98 -23,132 110,185 236,231 33,12 11,95 46,94 4,8 8,14 12,21 -13,9 -27,17 -42,22 -26,10 -55,13 -84,10 -12,27 -29,50 -51,68 -33,27 -75,44 -120,44 -46,0 -88,-17 -121,-44 -21,-18 -39,-41 -51,-68 -28,3 -57,0 -84,-10 -85,-31 -136,-119 -120,-208 5,-28 16,-55 33,-79 -17,-23 -28,-50 -33,-78 -16,-89 35,-177 120,-208 27,-10 56,-14 84,-11 12,-26 30,-49 51,-67 33,-28 75,-44 121,-44z" fill="#7eaf31" fill-rule="nonzero"/></g><g id="change1_3"><path d="M1967 1146c46,0 87,16 120,44 22,18 40,41 51,68 29,-4 58,0 84,10 86,31 136,119 121,208 -5,28 -16,55 -33,78 17,24 28,51 33,79 7,41 0,86 -23,126 -23,39 -58,67 -98,82 -26,10 -55,13 -84,10 -11,27 -29,50 -51,68 -33,27 -74,44 -120,44 -46,0 -88,-17 -121,-44 -21,-18 -39,-41 -51,-68 -28,3 -57,0 -84,-10 -17,-6 -40,-23 -60,-42l0 -1c35,1 9,-92 42,-104 126,-46 263,-89 240,-221 -6,-35 -19,-68 -37,-98 18,-30 31,-64 37,-99 8,-43 5,-86 -7,-125 13,-3 27,-5 41,-5z" fill="#7eaf31" fill-rule="nonzero"/></g><g id="change4_3"><path d="M1438 2109c0,24 19,43 43,43 24,0 44,-19 44,-43l0 -243c0,-24 -20,-43 -44,-43 -24,0 -43,19 -43,43l0 243z" fill="#a97d50" fill-rule="nonzero"/></g><g id="change5_1"><path d="M1485 848c58,0 110,21 151,55 30,25 53,57 68,94 39,-6 78,-2 115,12 106,38 170,148 150,260 -6,38 -23,75 -47,106 24,31 41,67 47,106 20,111 -44,221 -150,260 -37,13 -76,18 -115,12 -15,37 -38,69 -68,94 -41,34 -93,54 -151,54 -57,0 -109,-20 -150,-54 -30,-25 -53,-57 -68,-94 -39,6 -79,1 -115,-12 -107,-39 -170,-149 -151,-260 7,-39 23,-75 48,-106 -25,-31 -41,-68 -48,-106 -19,-112 44,-222 151,-260 36,-14 76,-18 115,-12 15,-37 38,-69 68,-94 41,-34 93,-55 150,-55z" fill="#8ec63f" fill-rule="nonzero"/></g><g id="change2_2"><path d="M757 2065c-24,0 -43,20 -43,44 0,24 19,43 43,43l1457 0c24,0 43,-19 43,-43 0,-24 -19,-44 -43,-44l-1457 0z" fill="#75471a" fill-rule="nonzero"/></g></g></svg>